<?xml version="1.0" standalone="no"?>
<!DOCTYPE svg PUBLIC "-//W3C//DTD SVG 20010904//EN"
 "http://www.w3.org/TR/2001/REC-SVG-20010904/DTD/svg10.dtd">
<svg version="1.0" xmlns="http://www.w3.org/2000/svg"
 width="512.000000pt" height="512.000000pt" viewBox="0 0 512.000000 512.000000"
 preserveAspectRatio="xMidYMid meet">

<g transform="translate(0.000000,512.000000) scale(0.100000,-0.100000)"
fill="#797878" stroke="none">
<path d="M2279 4022 c-158 -83 -193 -296 -68 -420 57 -57 104 -77 189 -77 57
0 84 5 116 22 116 62 174 189 140 307 -36 121 -133 196 -256 196 -55 0 -78 -5
-121 -28z"/>
<path d="M2328 2976 c-132 -35 -216 -175 -188 -310 29 -142 172 -236 314 -206
142 29 236 172 206 314 -20 98 -105 185 -201 205 -61 13 -71 13 -131 -3z"/>
<path d="M2330 1911 c-144 -47 -225 -189 -186 -325 22 -74 70 -134 136 -169
50 -26 62 -29 131 -25 91 5 153 36 200 101 100 138 56 322 -95 399 -44 22
-145 33 -186 19z"/>
</g>
</svg>
