<?xml version="1.0" encoding="UTF-8" standalone="no"?>
<svg
   version="1.0"
   width="512.000000pt"
   height="512.000000pt"
   viewBox="0 0 512.000000 512.000000"
   preserveAspectRatio="xMidYMid meet"
   id="svg4"
   sodipodi:docname="2551e4be-c496-4332-997c-95ee22fad362.svg"
   xmlns:inkscape="http://www.inkscape.org/namespaces/inkscape"
   xmlns:sodipodi="http://sodipodi.sourceforge.net/DTD/sodipodi-0.dtd"
   xmlns="http://www.w3.org/2000/svg"
   xmlns:svg="http://www.w3.org/2000/svg">
  <defs
     id="defs4" />
  <sodipodi:namedview
     id="namedview4"
     pagecolor="#ffffff"
     bordercolor="#000000"
     borderopacity="0.25"
     inkscape:showpageshadow="2"
     inkscape:pageopacity="0.0"
     inkscape:pagecheckerboard="0"
     inkscape:deskcolor="#d1d1d1"
     inkscape:document-units="pt" />
  <g
     transform="translate(0.000000,512.000000) scale(0.100000,-0.100000)"
     fill="#00a046"
     stroke="none"
     id="g4">
    <path
       d="M3815 5109 c-563 -80 -985 -564 -985 -1129 0 -230 64 -446 185 -630 273 -413 765 -602 1246 -480 434 111 767 479 840 929 15 95 12 293 -6 387 -91 478 -474 847 -952 919 -106 16 -233 18 -328 4z m363 -1276 l-363 -363 -205 205 -205 205 95 95 95 95 107 -107 108 -108 267 268 268 267 97 -97 98 -98 -362 -362z"
       id="path1" />
    <path
       d="M186 5091 c-9 -14 -176 -504 -176 -516 0 -5 157 -64 349 -130 l348 -119 262 -1126 c144 -619 295 -1271 335 -1450 l73 -325 1490 -3 1489 -2 143 632 c78 348 145 643 148 656 5 23 4 23 -63 -11 -166 -83 -342 -126 -552 -134 -215 -8 -357 12 -539 77 -454 162 -812 569 -908 1034 -13 65 -34 232 -35 284 0 9 -125 12 -589 12 l-589 0 -7 33 c-40 185 -176 752 -182 757 -8 7 -975 340 -986 340 -3 0 -8 -4 -11 -9z"
       id="path2" />
    <path
       d="M1830 1104 c-258 -55 -440 -281 -440 -544 0 -154 55 -285 165 -395 143 -143 334 -195 529 -145 107 27 169 63 252 145 115 113 166 236 165 398 0 160 -61 299 -178 406 -135 125 -315 174 -493 135z"
       id="path3" />
    <path
       d="M3670 1104 c-253 -54 -440 -285 -440 -544 0 -326 281 -584 605 -557 221 19 411 170 486 387 27 81 31 237 7 316 -63 203 -227 357 -425 399 -83 18 -148 18 -233 -1z"
       id="path4" />
  </g>
</svg>
